<svg width="24" height="24" viewBox="0 0 24 24" fill="none" xmlns="http://www.w3.org/2000/svg">
<path d="M15.6479 13.0053C15.2409 13.0821 14.8487 12.8143 14.7719 12.4073C14.6952 12.0003 14.9629 11.6081 15.3699 11.5313L15.6479 13.0053ZM8.74575 13.0053C7.27228 12.7274 5.70596 12.2328 4.48655 11.4928C3.28674 10.7647 2.25 9.68426 2.25 8.20158H3.75C3.75 8.89986 4.23333 9.58453 5.26473 10.2104C6.27655 10.8244 7.6526 11.2727 9.02376 11.5313L8.74575 13.0053ZM2.25 8.20158C2.25 6.30534 3.78918 4.81136 5.58277 3.84258C7.4251 2.84748 9.79806 2.25002 12 2.25002V3.75002C10.0398 3.75002 7.91277 4.2889 6.29563 5.16237C4.62976 6.06215 3.75 7.16896 3.75 8.20158H2.25ZM12 2.25002C14.2019 2.25002 16.5749 2.84748 18.4172 3.84258C20.2108 4.81136 21.75 6.30534 21.75 8.20158H20.25C20.25 7.16896 19.3702 6.06215 17.7044 5.16237C16.0872 4.2889 13.9602 3.75002 12 3.75002V2.25002ZM21.75 8.20158C21.75 9.63954 20.8672 10.7236 19.7368 11.476C18.607 12.228 17.1279 12.7262 15.6479 13.0053L15.3699 11.5313C16.7347 11.2739 18.0012 10.8293 18.9057 10.2273C19.8096 9.62563 20.25 8.94458 20.25 8.20158H21.75Z" fill="#1E1E1E"/>
<path d="M13.3937 9.47317L13.396 9.47376C13.7861 9.5743 14.0342 9.81038 14.1256 10.0342C14.4474 10.8238 14.9821 12.2153 15.4353 13.7758C15.8919 15.348 16.25 17.0388 16.25 18.4425C16.25 19.2319 15.8911 19.907 15.2243 20.4064C14.5441 20.9159 13.5251 21.25 12.25 21.25C10.975 21.25 9.95601 20.9159 9.27572 20.4064C8.6089 19.907 8.25 19.2319 8.25 18.4425C8.25 17.0357 8.6079 15.3441 9.06428 13.7721C9.51737 12.2115 10.0519 10.8208 10.3737 10.0319L13.3937 9.47317ZM13.3937 9.47317C12.5655 9.25691 11.9445 9.25708 11.1052 9.47269M13.3937 9.47317L11.1052 9.47269M11.1052 9.47269C10.7114 9.57467 10.4636 9.81177 10.3738 10.0318L11.1052 9.47269Z" stroke="#1E1E1E" stroke-width="1.5"/>
<path d="M3.75 9.71951C3.75 7.28659 7.5 6.0122 12 6.0122C16.5 6.0122 20.5 7.28659 20.5 9.71951" stroke="#1E1E1E" stroke-width="1.5" stroke-linecap="round" stroke-linejoin="round"/>
</svg>
