<svg width="24" height="24" viewBox="0 0 24 24" fill="none" xmlns="http://www.w3.org/2000/svg">
<path d="M12.9464 16.7374L12.4201 15.6849L11.8939 16.7374H12.9464Z" stroke="#1E1E1E" stroke-width="1.5" stroke-linecap="round" stroke-linejoin="round"/>
<path d="M15.5777 22C15.8568 22 16.1245 21.8891 16.3219 21.6917C16.5193 21.4943 16.6302 21.2266 16.6302 20.9475V19.895C17.0267 19.8947 17.415 19.7825 17.7505 19.5712C18.086 19.36 18.3551 19.0583 18.5266 18.7008C18.6982 18.3434 18.7653 17.9448 18.7203 17.5509C18.6753 17.157 18.5199 16.7838 18.2721 16.4743C19.4783 15.3084 20.3087 13.8088 20.6569 12.1678C21.0051 10.5269 20.8552 8.81926 20.2264 7.26404C19.5976 5.70882 18.5186 4.37686 17.1278 3.43897C15.7369 2.50107 14.0977 2 12.4201 2C10.7426 2 9.10333 2.50107 7.71249 3.43897C6.32165 4.37686 5.24265 5.70882 4.61387 7.26404C3.98509 8.81926 3.83519 10.5269 4.18338 12.1678C4.53157 13.8088 5.36199 15.3084 6.56814 16.4743C6.32035 16.7838 6.16499 17.157 6.11997 17.5509C6.07494 17.9448 6.14208 18.3434 6.31365 18.7008C6.48522 19.0583 6.75424 19.36 7.08974 19.5712C7.42525 19.7825 7.81359 19.8947 8.21007 19.895V20.9475C8.21007 21.2266 8.32096 21.4943 8.51834 21.6917C8.71573 21.8891 8.98344 22 9.26259 22H15.5777Z" stroke="#1E1E1E" stroke-width="1.5" stroke-linecap="round" stroke-linejoin="round"/>
<path d="M15.5777 12.5273C16.159 12.5273 16.6302 12.0561 16.6302 11.4748C16.6302 10.8935 16.159 10.4223 15.5777 10.4223C14.9964 10.4223 14.5251 10.8935 14.5251 11.4748C14.5251 12.0561 14.9964 12.5273 15.5777 12.5273Z" fill="#1E1E1E" stroke="#1E1E1E" stroke-width="1.5" stroke-linecap="round" stroke-linejoin="round"/>
<path d="M9.2626 12.5273C9.84389 12.5273 10.3151 12.0561 10.3151 11.4748C10.3151 10.8935 9.84389 10.4223 9.2626 10.4223C8.68131 10.4223 8.21008 10.8935 8.21008 11.4748C8.21008 12.0561 8.68131 12.5273 9.2626 12.5273Z" fill="#1E1E1E" stroke="#1E1E1E" stroke-width="1.5" stroke-linecap="round" stroke-linejoin="round"/>
</svg>
