<svg width="27" height="26" viewBox="0 0 27 26" fill="none" xmlns="http://www.w3.org/2000/svg">
<g clip-path="url(#clip0_81_3068)">
<path fill-rule="evenodd" clip-rule="evenodd" d="M13.0277 0C5.82373 0 0 5.86667 0 13.1245C0 18.9261 3.73147 23.8371 8.908 25.5752C9.5552 25.7059 9.79227 25.2928 9.79227 24.9453C9.79227 24.6411 9.77093 23.5981 9.77093 22.5115C6.14693 23.2939 5.39227 20.9469 5.39227 20.9469C4.80987 19.4259 3.94693 19.0349 3.94693 19.0349C2.7608 18.2309 4.03333 18.2309 4.03333 18.2309C5.34907 18.3179 6.03947 19.5781 6.03947 19.5781C7.204 21.5771 9.08053 21.0123 9.83547 20.6645C9.9432 19.8171 10.2885 19.2304 10.6552 18.9045C7.7648 18.6003 4.72373 17.4704 4.72373 12.4291C4.72373 10.9949 5.24107 9.8216 6.0608 8.90907C5.93147 8.5832 5.4784 7.23573 6.1904 5.43227C6.1904 5.43227 7.2904 5.08453 9.77067 6.77947C10.8326 6.49218 11.9277 6.34603 13.0277 6.3448C14.1277 6.3448 15.2491 6.49707 16.2845 6.77947C18.7651 5.08453 19.8651 5.43227 19.8651 5.43227C20.5771 7.23573 20.1237 8.5832 19.9944 8.90907C20.8357 9.8216 21.3317 10.9949 21.3317 12.4291C21.3317 17.4704 18.2907 18.5784 15.3787 18.9045C15.8533 19.3173 16.2629 20.0995 16.2629 21.3381C16.2629 23.0981 16.2416 24.5107 16.2416 24.9451C16.2416 25.2928 16.4789 25.7059 17.1259 25.5755C22.3024 23.8368 26.0339 18.9261 26.0339 13.1245C26.0552 5.86667 20.2101 0 13.0277 0Z" fill="#303133"/>
</g>
<defs>
<clipPath id="clip0_81_3068">
<rect width="26.1333" height="25.6" fill="white"/>
</clipPath>
</defs>
</svg>
