<svg width="26" height="27" viewBox="0 0 26 27" fill="none" xmlns="http://www.w3.org/2000/svg">
<path d="M25.6134 13.38C25.6134 12.4975 25.528 11.5866 25.3857 10.7325H13.0594V15.7712H20.1192C19.8346 17.3939 18.8951 18.8172 17.5003 19.7282L21.7134 23.0019C24.19 20.6961 25.6134 17.3369 25.6134 13.38Z" fill="#4280EF"/>
<path d="M13.0593 26.1336C16.5893 26.1336 19.5498 24.9664 21.7133 22.9737L17.5002 19.7285C16.333 20.5255 14.8243 20.981 13.0593 20.981C9.64326 20.981 6.76807 18.6752 5.71478 15.6007L1.38777 18.9314C3.60821 23.3438 8.10603 26.1336 13.0593 26.1336Z" fill="#34A353"/>
<path d="M5.7148 15.5721C5.17393 13.9495 5.17393 12.1845 5.7148 10.5619L1.38779 7.20276C-0.462577 10.9035 -0.462577 15.259 1.38779 18.9312L5.7148 15.5721Z" fill="#F6B704"/>
<path d="M13.0593 5.18153C14.9097 5.15306 16.7316 5.86474 18.0695 7.14576L21.7987 3.38809C19.436 1.16765 16.3046 -0.0279704 13.0593 0.000496835C8.10603 0.000496835 3.60821 2.79028 1.38777 7.2027L5.71478 10.5618C6.76807 7.4589 9.64326 5.18153 13.0593 5.18153Z" fill="#E54335"/>
</svg>
