<svg width="24" height="24" viewBox="0 0 24 24" fill="none" xmlns="http://www.w3.org/2000/svg">
<path d="M20.1195 5.08525C19.6504 4.61438 19.0933 4.24086 18.4803 3.98602C17.8672 3.73117 17.2101 3.60001 16.5464 3.60001C15.8828 3.60001 15.2257 3.73117 14.6126 3.98602C13.9995 4.24086 13.4425 4.61438 12.9734 5.08525L11.9997 6.062L11.0261 5.08525C10.0785 4.13458 8.79321 3.6005 7.45306 3.6005C6.1129 3.6005 4.82764 4.13458 3.88 5.08525C2.93237 6.03592 2.39999 7.3253 2.39999 8.66975C2.39999 10.0142 2.93237 11.3036 3.88 12.2543L4.85364 13.231L11.9997 20.4L19.1459 13.231L20.1195 12.2543C20.5889 11.7836 20.9612 11.2248 21.2152 10.6098C21.4692 9.99472 21.6 9.3355 21.6 8.66975C21.6 8.004 21.4692 7.34478 21.2152 6.72974C20.9612 6.1147 20.5889 5.55589 20.1195 5.08525V5.08525Z" stroke="#302E2C" stroke-width="1.5" stroke-linecap="round" stroke-linejoin="round"/>
</svg>
