<svg width="28" height="24" viewBox="0 0 28 24" fill="none" xmlns="http://www.w3.org/2000/svg">
<path d="M24.1254 10.9221C24.327 10.8431 24.4982 10.7134 24.6175 10.5489C24.7369 10.3845 24.7993 10.1925 24.7971 9.99685C24.7948 9.8012 24.7279 9.61044 24.6047 9.4482C24.4815 9.28596 24.3074 9.15937 24.104 9.08411L14.4505 5.18011C14.157 5.06126 13.8382 4.99976 13.5156 4.99976C13.1931 4.99976 12.8743 5.06126 12.5808 5.18011L2.92836 9.08011C2.72784 9.15809 2.55726 9.28625 2.43748 9.44893C2.3177 9.61161 2.25391 9.80176 2.25391 9.99611C2.25391 10.1905 2.3177 10.3806 2.43748 10.5433C2.55726 10.706 2.72784 10.8341 2.92836 10.9121L12.5808 14.8201C12.8743 14.939 13.1931 15.0005 13.5156 15.0005C13.8382 15.0005 14.157 14.939 14.4505 14.8201L24.1254 10.9221Z" stroke="#303133" stroke-width="1.5" stroke-linecap="round" stroke-linejoin="round"/>
<path d="M24.7787 10V16" stroke="#303133" stroke-width="1.5" stroke-linecap="round" stroke-linejoin="round"/>
<path d="M6.75781 12.5V16C6.75781 16.7956 7.4698 17.5587 8.73713 18.1213C10.0045 18.6839 11.7234 19 13.5156 19C15.3079 19 17.0268 18.6839 18.2941 18.1213C19.5615 17.5587 20.2735 16.7956 20.2735 16V12.5" stroke="#303133" stroke-width="1.5" stroke-linecap="round" stroke-linejoin="round"/>
</svg>
