<svg width="24" height="24" viewBox="0 0 24 24" fill="none" xmlns="http://www.w3.org/2000/svg">
<path d="M14.4866 13.3889L14.4867 13.3896C14.7466 15.4006 15 17.3757 15 18.1328C15 18.9497 14.783 19.7332 14.3281 20.2965C13.8941 20.8339 13.1816 21.25 12 21.25C10.8177 21.25 10.1053 20.8338 9.67151 20.2966C9.21676 19.7334 9 18.9499 9 18.1328C9 17.3757 9.25338 15.4006 9.51327 13.3896L9.51336 13.3889L9.53099 13.2515C9.62752 12.4992 9.72532 11.7369 9.80034 11.0953C9.86898 10.5084 9.92416 9.97862 9.93562 9.6522C10.0803 9.47987 10.6118 9 12 9C12.93 9 13.465 9.21599 13.7521 9.39376C13.9166 9.49565 14.0142 9.59398 14.0644 9.65371C14.076 9.98025 14.1311 10.5093 14.1996 11.0953C14.2747 11.7372 14.3725 12.4997 14.4691 13.2524L14.4866 13.3889ZM9.89693 9.70336C9.89332 9.71 9.89134 9.71303 9.89126 9.71289C9.89117 9.71275 9.89298 9.70943 9.89693 9.70336Z" stroke="#303133" stroke-width="1.5" stroke-linecap="round" stroke-linejoin="round"/>
<path d="M14.1418 10.75C14.1465 10.75 14.15 10.75 14.1558 10.75C19.4349 10.5813 22 9.67822 22 7.98768C22 5.30222 16.4856 2 12.0006 2C7.51435 2 2 5.30222 2 7.98768C2 9.67822 4.03909 10.5813 9.31707 10.75" stroke="#303133" stroke-width="1.5" stroke-linecap="round" stroke-linejoin="round"/>
<path d="M2 8.25C2 6.06048 8.45684 5 12 5C15.5444 5 22 6.06048 22 8.25" stroke="#303133" stroke-width="1.5" stroke-linecap="round" stroke-linejoin="round"/>
<path d="M12 5.75L12 8.25" stroke="#303133" stroke-width="1.5" stroke-linecap="round" stroke-linejoin="round"/>
<path d="M12.8965 9.00757C12.8965 9.00757 14.4607 8.01178 15.1252 7.34734C15.7896 6.6829 16.2993 5.60475 16.2993 5.60475" stroke="#303133" stroke-width="1.5" stroke-linecap="round" stroke-linejoin="round"/>
<path d="M10.5599 9.00757C10.5599 9.00757 8.98395 8.01178 8.31951 7.34734C7.65507 6.6829 7.15706 5.60475 7.15706 5.60475" stroke="#303133" stroke-width="1.5" stroke-linecap="round" stroke-linejoin="round"/>
<path d="M9.21753 9.79956C9.21753 9.79956 7.32976 9.5349 5.6458 8.56267C3.96185 7.59044 2.97217 6.37515 2.97217 6.37515" stroke="#303133" stroke-width="1.5" stroke-linecap="round" stroke-linejoin="round"/>
<path d="M14.1284 10.2432C14.1284 10.2432 16.0974 9.68518 18.0418 8.56254C19.9863 7.4399 20.9585 6.37502 20.9585 6.37502" stroke="#303133" stroke-width="1.5" stroke-linecap="round" stroke-linejoin="round"/>
</svg>
