<svg width="24" height="24" viewBox="0 0 24 24" fill="none" xmlns="http://www.w3.org/2000/svg">
<path d="M13.9881 15.87C14.1452 17.3378 14.3077 18.5175 14.3077 19.1266C14.3077 20.5162 13.7011 22 12 22C10.2983 22 9.69235 20.5162 9.69235 19.1266C9.69235 18.5175 9.85491 17.3378 10.012 15.87" stroke="#303133" stroke-width="1.5" stroke-linecap="round" stroke-linejoin="round"/>
<path d="M2.76923 9.92578C2.76923 7.94436 7.38461 6.95364 12 6.95364C16.6154 6.95364 21.2308 7.94436 21.2308 9.92578" stroke="#303133" stroke-width="1.5" stroke-linecap="round" stroke-linejoin="round"/>
<path d="M9.30769 11.9072C5.80769 11.9072 2 11.0066 2 8.77961C2 5.73902 7.51435 2.00011 12.0006 2.00011C16.4856 2.00011 22 5.73902 22 8.77961C22 10.9165 18.1923 11.9072 14.6923 11.9072" stroke="#303133" stroke-width="1.5" stroke-linecap="round" stroke-linejoin="round"/>
<path d="M10.3334 7C10.3251 7.86687 10.0823 9.36157 9.68368 11.005C9.28641 12.6694 8.89052 13.8602 8.75534 14.0793C8.63947 14.2691 8.63671 14.5332 8.74982 14.7257C9.36089 15.7624 9.89197 15.6457 10.3817 15.4279C10.5127 15.3708 10.6258 15.3177 10.732 15.3296C10.841 15.3389 10.8907 15.3868 11.0203 15.5209C11.2024 15.7119 11.4769 16 11.9997 16C12.5225 16 12.7984 15.7119 12.9791 15.5209C13.1087 15.3868 13.1584 15.3389 13.2701 15.3296C13.3708 15.3098 13.4853 15.3695 13.6177 15.4279C14.1088 15.6442 14.6385 15.765 15.2495 14.7257C15.3627 14.5332 15.3613 14.2691 15.2454 14.0793C15.1088 13.8602 14.7116 12.6682 14.3143 11.0009C13.9157 9.36016 13.6729 7.86546 13.666 7" stroke="#303133" stroke-width="1.5"/>
<path d="M6.30774 10.9165C7.07697 9.43044 8.23082 7.94437 9.00005 7.44901" stroke="#303133" stroke-width="1.5" stroke-linecap="round" stroke-linejoin="round"/>
<path d="M17.6923 10.9165C16.923 9.43044 15.7692 7.94437 15 7.44901" stroke="#303133" stroke-width="1.5" stroke-linecap="round" stroke-linejoin="round"/>
</svg>
