<svg width="24" height="24" viewBox="0 0 24 24" fill="none" xmlns="http://www.w3.org/2000/svg">
<path d="M13.988 15.87C14.1451 17.3378 14.3077 18.5175 14.3077 19.1266C14.3077 20.5162 13.701 22 12 22C10.2982 22 9.69232 20.5162 9.69232 19.1266C9.69232 18.5175 9.85488 17.3378 10.012 15.87" stroke="#1E1E1E" stroke-width="1.5" stroke-linecap="round" stroke-linejoin="round"/>
<path d="M2.76926 9.92569C2.76926 7.94427 7.38464 6.95355 12 6.95355C16.6154 6.95355 21.2308 7.94427 21.2308 9.92569" stroke="#1E1E1E" stroke-width="1.5" stroke-linecap="round" stroke-linejoin="round"/>
<path d="M9.30769 11.9071C5.80769 11.9071 2 11.0065 2 8.77952C2 5.73893 7.51435 2.00001 12.0006 2.00001C16.4856 2.00001 22 5.73893 22 8.77952C22 10.9164 18.1923 11.9071 14.6923 11.9071" stroke="#1E1E1E" stroke-width="1.5" stroke-linecap="round" stroke-linejoin="round"/>
<path d="M10.3333 7C10.325 7.86687 10.0823 9.36157 9.68364 11.005C9.28638 12.6694 8.89049 13.8602 8.75531 14.0793C8.63944 14.2691 8.63668 14.5332 8.74979 14.7257C9.36086 15.7624 9.89194 15.6457 10.3816 15.4279C10.5127 15.3708 10.6258 15.3177 10.732 15.3296C10.841 15.3389 10.8906 15.3868 11.0203 15.5209C11.2024 15.7119 11.4769 16 11.9997 16C12.5224 16 12.7983 15.7119 12.979 15.5209C13.1087 15.3868 13.1583 15.3389 13.2701 15.3296C13.3708 15.3098 13.4853 15.3695 13.6177 15.4279C14.1088 15.6442 14.6384 15.765 15.2495 14.7257C15.3626 14.5332 15.3612 14.2691 15.2454 14.0793C15.1088 13.8602 14.7115 12.6682 14.3143 11.0009C13.9156 9.36016 13.6729 7.86546 13.666 7" stroke="#1E1E1E" stroke-width="1.5"/>
<path d="M6.30771 10.9164C7.07694 9.43034 8.23079 7.94428 9.00002 7.44892" stroke="#1E1E1E" stroke-width="1.5" stroke-linecap="round" stroke-linejoin="round"/>
<path d="M17.6923 10.9164C16.9231 9.43034 15.7692 7.94428 15 7.44892" stroke="#1E1E1E" stroke-width="1.5" stroke-linecap="round" stroke-linejoin="round"/>
</svg>
