<svg width="24" height="24" viewBox="0 0 24 24" fill="none" xmlns="http://www.w3.org/2000/svg">
<path d="M11.9077 22.1633L11.4917 22.7874C11.7436 22.9553 12.0718 22.9553 12.3238 22.7874L11.9077 22.1633ZM17.4993 5.14943L18.0297 4.6191L18.0297 4.6191L17.4993 5.14943ZM6.31612 5.14943L6.84645 5.67976L6.31612 5.14943ZM19.0655 10.741C19.0655 13.5148 17.2642 16.1875 15.3171 18.2428C14.3589 19.2542 13.3982 20.0818 12.6761 20.6568C12.3157 20.9438 12.0163 21.1666 11.8084 21.3168C11.7045 21.3918 11.6236 21.4486 11.5695 21.4861C11.5425 21.5048 11.5221 21.5187 11.509 21.5276C11.5025 21.532 11.4977 21.5353 11.4948 21.5372C11.4933 21.5382 11.4923 21.5389 11.4918 21.5392C11.4916 21.5394 11.4914 21.5395 11.4914 21.5395C11.4914 21.5395 11.4915 21.5394 11.4915 21.5394C11.4916 21.5394 11.4917 21.5393 11.9077 22.1633C12.3238 22.7874 12.3239 22.7872 12.3242 22.7871C12.3243 22.787 12.3245 22.7868 12.3248 22.7867C12.3252 22.7864 12.3258 22.786 12.3265 22.7855C12.3279 22.7846 12.3298 22.7833 12.3321 22.7817C12.3368 22.7786 12.3434 22.7741 12.3518 22.7684C12.3686 22.757 12.3927 22.7406 12.4236 22.7192C12.4853 22.6764 12.5743 22.6139 12.6866 22.5328C12.9112 22.3706 13.2296 22.1335 13.6105 21.8302C14.3712 21.2245 15.3873 20.3497 16.4061 19.2744C18.4128 17.1562 20.5655 14.1177 20.5655 10.741H19.0655ZM16.969 5.67976C18.3113 7.0221 19.0655 8.84269 19.0655 10.741H20.5655C20.5655 8.44487 19.6533 6.24274 18.0297 4.6191L16.969 5.67976ZM11.9077 3.58331C13.8061 3.58331 15.6267 4.33743 16.969 5.67976L18.0297 4.6191C16.406 2.99546 14.2039 2.08331 11.9077 2.08331V3.58331ZM6.84645 5.67976C8.18878 4.33743 10.0094 3.58331 11.9077 3.58331V2.08331C9.61156 2.08331 7.40943 2.99546 5.78579 4.6191L6.84645 5.67976ZM4.75 10.741C4.75 8.84269 5.50412 7.0221 6.84645 5.67976L5.78579 4.6191C4.16215 6.24274 3.25 8.44487 3.25 10.741H4.75ZM11.9077 22.1633C12.3238 21.5393 12.3239 21.5394 12.324 21.5394C12.324 21.5394 12.3241 21.5395 12.3241 21.5395C12.324 21.5395 12.3239 21.5394 12.3236 21.5392C12.3231 21.5389 12.3221 21.5382 12.3207 21.5372C12.3178 21.5353 12.313 21.532 12.3064 21.5276C12.2933 21.5187 12.273 21.5048 12.2459 21.4861C12.1919 21.4486 12.111 21.3918 12.0071 21.3168C11.7992 21.1666 11.4998 20.9438 11.1393 20.6568C10.4173 20.0818 9.45654 19.2542 8.49833 18.2428C6.55124 16.1875 4.75 13.5148 4.75 10.741H3.25C3.25 14.1177 5.40263 17.1562 7.4094 19.2744C8.42812 20.3497 9.4443 21.2245 10.205 21.8302C10.5859 22.1335 10.9042 22.3706 11.1288 22.5328C11.2412 22.6139 11.3301 22.6764 11.3919 22.7192C11.4228 22.7406 11.4469 22.757 11.4636 22.7684C11.472 22.7741 11.4786 22.7786 11.4833 22.7817C11.4857 22.7833 11.4875 22.7846 11.4889 22.7855C11.4896 22.786 11.4902 22.7864 11.4907 22.7867C11.4909 22.7868 11.4912 22.787 11.4913 22.7871C11.4915 22.7872 11.4917 22.7874 11.9077 22.1633ZM11.9077 14.127C13.7777 14.127 15.2936 12.611 15.2936 10.741H13.7936C13.7936 11.7826 12.9493 12.627 11.9077 12.627V14.127ZM8.52182 10.741C8.52182 12.611 10.0377 14.127 11.9077 14.127V12.627C10.8662 12.627 10.0218 11.7826 10.0218 10.741H8.52182ZM11.9077 7.35513C10.0377 7.35513 8.52182 8.87106 8.52182 10.741H10.0218C10.0218 9.69948 10.8662 8.85513 11.9077 8.85513V7.35513ZM15.2936 10.741C15.2936 8.87106 13.7777 7.35513 11.9077 7.35513V8.85513C12.9493 8.85513 13.7936 9.69948 13.7936 10.741H15.2936Z" fill="#302E2C"/>
</svg>
