<svg width="24" height="24" viewBox="0 0 24 24" fill="none" xmlns="http://www.w3.org/2000/svg">
<path d="M12.2731 3.80638C10.8056 2.55001 8.76146 2.55 7.31041 2.55C4.20312 2.55 2 5.79188 2 6.825C2 7.66338 2.59375 8.25 3.44375 8.25C3.72187 8.25 4.04166 8.09918 4.44687 7.90681C5.0177 7.63606 5.72812 7.3 6.49479 7.3C7.06042 7.3 7.33229 7.47813 7.67604 7.70375C8.0677 7.96025 8.51146 8.25 9.34896 8.25C10.1312 8.25 10.7094 7.99825 11.2687 7.756C11.8073 7.52207 12.3167 7.3 13.0187 7.3C13.2083 7.3 13.5437 7.40688 13.8687 7.51019C14.2812 7.63963 14.7073 7.775 15.0583 7.775C15.6458 7.775 15.974 7.3855 16.2635 7.04231C16.5771 6.67062 16.8479 6.35 17.5052 6.35C18.2917 6.35 18.8781 6.64569 19.3958 6.90694C19.7979 7.10882 20.1771 7.3 20.5719 7.3C21.7531 7.3 22 6.52575 22 5.875C22 4.41438 18.7937 2.55 16.2813 2.55C14.9844 2.55 13.8865 3.03212 12.7844 3.53087C11.8729 3.94334 11.2687 4.77934 8.11497 4.77934" stroke="#303133" stroke-width="1.5" stroke-linecap="round" stroke-linejoin="round"/>
<path d="M4.93518 7.56605C6.31851 8.48043 10.3387 11.8826 10.3387 15.3751C10.3387 17.3047 8.76684 19.8222 8.75017 19.8472C8.67725 19.9635 8.65434 20.1108 8.68663 20.2497C8.71996 20.3863 8.80536 20.5003 8.91994 20.5597C8.98348 20.5917 10.4971 21.3565 11.5231 21.5441C11.545 21.5477 11.5669 21.55 11.5887 21.55C11.7002 21.55 11.8085 21.499 11.8877 21.4064C12.8773 20.2486 13.3179 18.4839 13.8283 16.4402C14.6991 12.9537 15.5215 9.09516 19.6111 7.00872" stroke="#303133" stroke-width="1.5"/>
<path d="M12.2731 7.56616V12.0248" stroke="#303133" stroke-width="1.5" stroke-linecap="round" stroke-linejoin="round"/>
</svg>
