<svg width="24" height="24" viewBox="0 0 24 24" fill="none" xmlns="http://www.w3.org/2000/svg">
<path d="M12.2731 3.80635C10.8056 2.54998 8.76146 2.54997 7.31041 2.54997C4.20312 2.54997 2 5.79185 2 6.82497C2 7.66334 2.59375 8.24997 3.44375 8.24997C3.72187 8.24997 4.04166 8.09915 4.44687 7.90678C5.0177 7.63603 5.72812 7.29997 6.49479 7.29997C7.06042 7.29997 7.33229 7.47809 7.67604 7.70372C8.0677 7.96022 8.51146 8.24997 9.34896 8.24997C10.1312 8.24997 10.7094 7.99822 11.2687 7.75597C11.8073 7.52204 12.3167 7.29997 13.0187 7.29997C13.2083 7.29997 13.5437 7.40685 13.8687 7.51016C14.2812 7.6396 14.7073 7.77497 15.0583 7.77497C15.6458 7.77497 15.974 7.38547 16.2635 7.04228C16.5771 6.67059 16.8479 6.34997 17.5052 6.34997C18.2917 6.34997 18.8781 6.64566 19.3958 6.90691C19.7979 7.10879 20.1771 7.29997 20.5719 7.29997C21.7531 7.29997 22 6.52572 22 5.87497C22 4.41435 18.7937 2.54997 16.2813 2.54997C14.9844 2.54997 13.8865 3.03209 12.7844 3.53084C11.8729 3.94331 11.2687 4.77931 8.11497 4.77931" stroke="#1E1E1E" stroke-width="1.5" stroke-linecap="round" stroke-linejoin="round"/>
<path d="M4.93518 7.56599C6.31851 8.48037 10.3387 11.8826 10.3387 15.375C10.3387 17.3047 8.76684 19.8222 8.75017 19.8471C8.67725 19.9635 8.65434 20.1107 8.68663 20.2497C8.71996 20.3862 8.80536 20.5002 8.91994 20.5596C8.98348 20.5917 10.4971 21.3564 11.5231 21.5441C11.545 21.5476 11.5669 21.55 11.5887 21.55C11.7002 21.55 11.8085 21.4989 11.8877 21.4063C12.8773 20.2485 13.3179 18.4839 13.8283 16.4402C14.6991 12.9537 15.5215 9.09509 19.6111 7.00866" stroke="#1E1E1E" stroke-width="1.5"/>
<path d="M12.2732 7.56598V12.0246" stroke="#1E1E1E" stroke-width="1.5" stroke-linecap="round" stroke-linejoin="round"/>
</svg>
