<svg width="24" height="24" viewBox="0 0 24 24" fill="none" xmlns="http://www.w3.org/2000/svg">
<path d="M10.1746 4.68399V5.47332C10.1746 6.5879 9.56579 7.61347 8.5873 8.14719V8.14719C7.60881 8.68092 7 9.70649 7 10.8211V21C7 21.5523 7.44772 22 8 22H15.5238C16.0761 22 16.5238 21.5523 16.5238 21V10.8211C16.5238 9.70648 15.915 8.68092 14.9365 8.14719V8.14719C13.958 7.61347 13.3492 6.5879 13.3492 5.47332V4.68399" stroke="#1E1E1E" stroke-width="1.5" stroke-linecap="round" stroke-linejoin="round"/>
<rect x="9.85712" y="2" width="3.80952" height="2.85714" stroke="#1E1E1E" stroke-width="1.5" stroke-linecap="round" stroke-linejoin="round"/>
<line x1="7.75" y1="10.8604" x2="15.7738" y2="10.8604" stroke="#1E1E1E" stroke-width="1.5" stroke-linecap="round" stroke-linejoin="round"/>
<line x1="7.75" y1="19.5184" x2="15.7738" y2="19.5184" stroke="#1E1E1E" stroke-width="1.5" stroke-linecap="round" stroke-linejoin="round"/>
<line x1="0.75" y1="-0.75" x2="6.31764" y2="-0.75" transform="matrix(0.727591 0.686011 -0.727591 0.686011 8.73157 13.342)" stroke="#1E1E1E" stroke-width="1.5" stroke-linecap="round" stroke-linejoin="round"/>
<line x1="0.75" y1="-0.75" x2="6.31764" y2="-0.75" transform="matrix(-0.727591 0.686011 0.727591 0.686011 14.7922 13.342)" stroke="#1E1E1E" stroke-width="1.5" stroke-linecap="round" stroke-linejoin="round"/>
</svg>
