<svg width="24" height="24" viewBox="0 0 24 24" fill="none" xmlns="http://www.w3.org/2000/svg">
<path d="M10.1746 4.68408V5.47341C10.1746 6.588 9.56579 7.61356 8.5873 8.14729V8.14729C7.60881 8.68101 7 9.70658 7 10.8212V21.0001C7 21.5524 7.44772 22.0001 8 22.0001H15.5238C16.0761 22.0001 16.5238 21.5524 16.5238 21.0001V10.8212C16.5238 9.70658 15.915 8.68101 14.9365 8.14729V8.14729C13.958 7.61356 13.3492 6.588 13.3492 5.47341V4.68408" stroke="#303133" stroke-width="1.5" stroke-linecap="round" stroke-linejoin="round"/>
<rect x="9.85718" y="2" width="3.80952" height="2.85714" stroke="#303133" stroke-width="1.5" stroke-linecap="round" stroke-linejoin="round"/>
<line x1="7.75" y1="10.8604" x2="15.7738" y2="10.8604" stroke="#303133" stroke-width="1.5" stroke-linecap="round" stroke-linejoin="round"/>
<line x1="7.75" y1="19.5183" x2="15.7738" y2="19.5183" stroke="#303133" stroke-width="1.5" stroke-linecap="round" stroke-linejoin="round"/>
<line x1="0.75" y1="-0.75" x2="6.31764" y2="-0.75" transform="matrix(0.727591 0.686011 -0.727591 0.686011 8.73157 13.342)" stroke="#303133" stroke-width="1.5" stroke-linecap="round" stroke-linejoin="round"/>
<line x1="0.75" y1="-0.75" x2="6.31764" y2="-0.75" transform="matrix(-0.727591 0.686011 0.727591 0.686011 14.7922 13.342)" stroke="#303133" stroke-width="1.5" stroke-linecap="round" stroke-linejoin="round"/>
</svg>
