<svg width="1360" height="186" viewBox="0 0 1360 186" fill="none" xmlns="http://www.w3.org/2000/svg">
<path fill-rule="evenodd" clip-rule="evenodd" d="M0 124.175C0 100.286 4.79701 79.1352 14.3912 60.7211C24.4215 41.8095 38.3769 27.128 56.257 16.6768C74.1371 6.2256 94.4158 1 117.093 1C139.77 1 159.831 6.2256 177.275 16.6768C194.719 27.128 208.238 41.8095 217.832 60.7211C227.863 79.1352 232.878 99.9223 232.878 124.175H198.485L208.786 181.27H25.3766L35.6776 124.175H0Z" fill="#A94B2B"/>
<path d="M173.815 106.74C173.815 120.666 162.525 131.956 148.598 131.956C134.672 131.956 123.382 120.666 123.382 106.74C123.382 92.8128 134.672 81.523 148.598 81.523C162.525 81.523 173.815 92.8128 173.815 106.74Z" fill="#FBF8F6"/>
<ellipse cx="159.549" cy="106.994" rx="14.2639" ry="14.2639" fill="#303133"/>
<ellipse cx="84.4108" cy="106.739" rx="25.2165" ry="25.2165" fill="#FBF8F6"/>
<ellipse cx="95.3664" cy="106.994" rx="14.2639" ry="14.2639" fill="#303133"/>
<path d="M344.508 185.195C335.581 185.195 327.244 184.268 319.496 182.416C311.916 180.731 305.263 177.952 299.536 174.078C293.978 170.204 289.683 165.067 286.651 158.666C283.787 152.097 282.608 144.181 283.114 134.917L318.738 131.885C319.075 137.443 320.338 142.075 322.528 145.781C324.717 149.318 327.749 151.929 331.623 153.613C335.497 155.297 340.213 156.14 345.772 156.14C350.993 156.14 355.457 155.297 359.162 153.613C363.036 151.76 364.973 148.728 364.973 144.518C364.973 142.328 364.3 140.559 362.952 139.212C361.605 137.696 359.078 136.348 355.372 135.169C351.835 133.822 346.614 132.306 339.708 130.622C331.118 128.432 323.37 126.242 316.464 124.053C309.558 121.863 303.663 119.252 298.778 116.22C293.894 113.189 290.188 109.483 287.661 105.104C285.135 100.556 283.872 94.9976 283.872 88.4286C283.872 79.1646 286.314 71.3324 291.199 64.9318C296.252 58.3629 303.158 53.394 311.916 50.0253C320.675 46.4882 330.781 44.7196 342.235 44.7196C352.509 44.7196 362.11 46.3197 371.037 49.52C379.964 52.7203 386.954 57.9418 392.007 65.1845C397.229 72.4272 399.166 82.028 397.818 93.987L362.952 97.2714C363.457 92.3868 362.784 88.2601 360.931 84.8914C359.078 81.3543 356.383 78.7435 352.846 77.0592C349.309 75.2064 345.014 74.28 339.961 74.28C334.234 74.28 329.77 75.3748 326.57 77.5645C323.538 79.5857 322.022 82.1965 322.022 85.3967C322.022 87.9233 322.949 90.1129 324.801 91.9657C326.823 93.6501 329.855 95.166 333.897 96.5135C338.108 97.6925 343.498 99.04 350.067 100.556C355.794 101.735 361.773 103.251 368.005 105.104C374.237 106.956 380.048 109.483 385.438 112.683C390.828 115.715 395.207 119.758 398.576 124.811C401.945 129.864 403.629 136.264 403.629 144.012C403.629 152.266 401.355 159.508 396.808 165.74C392.26 171.973 385.607 176.773 376.848 180.142C368.089 183.51 357.309 185.195 344.508 185.195Z" fill="#303133"/>
<path d="M419.205 181.658V4.80041H460.135V38.1506C460.135 41.6878 459.882 46.4039 459.377 52.2992C459.04 58.026 458.45 64.1739 457.608 70.7429C456.935 77.3119 456.177 83.6282 455.334 89.6918C454.661 95.5871 454.071 100.556 453.566 104.598H455.84C457.356 90.6182 459.966 79.2489 463.672 70.4902C467.377 61.5631 472.431 55.0784 478.831 51.0359C485.232 46.825 492.98 44.7196 502.075 44.7196C516.392 44.7196 527.004 49.8569 533.909 60.1314C540.815 70.2376 544.268 85.5652 544.268 106.114V181.658H503.338V107.883C503.338 98.4505 502.075 91.5446 499.549 87.1653C497.022 82.786 492.895 80.5963 487.169 80.5963C482.116 80.5963 477.568 82.5333 473.525 86.4074C469.483 90.1129 466.198 96.0924 463.672 104.346C461.314 112.599 460.135 123.295 460.135 136.433V181.658H419.205Z" fill="#303133"/>
<path d="M563.614 181.658V48.2567H598.986V101.314H601.007C602.017 87.1653 603.954 76.0486 606.818 67.9637C609.85 59.7103 613.555 53.8993 617.934 50.5306C622.482 46.9935 627.535 45.2249 633.094 45.2249C636.126 45.2249 639.242 45.646 642.442 46.4882C645.811 47.3303 649.095 48.6778 652.295 50.5306L650.274 96.0082C646.569 93.8185 642.947 92.2184 639.41 91.2078C635.873 90.0287 632.504 89.4392 629.304 89.4392C623.914 89.4392 619.366 90.9551 615.661 93.987C611.955 97.0188 609.092 101.482 607.07 107.378C605.218 113.273 604.291 120.431 604.291 128.853V181.658H563.614Z" fill="#303133"/>
<path d="M726.504 185.195C713.703 185.195 702.334 182.668 692.396 177.615C682.459 172.394 674.71 164.646 669.152 154.371C663.594 143.928 660.815 130.874 660.815 115.21C660.815 98.8716 663.678 85.5652 669.405 75.2906C675.3 64.8476 683.216 57.1838 693.154 52.2992C703.26 47.2461 714.63 44.7196 727.262 44.7196C740.4 44.7196 751.854 47.3303 761.623 52.5518C771.561 57.6049 779.225 65.3529 784.615 75.7959C790.173 86.0705 792.952 99.1242 792.952 114.957C792.952 131.295 790.004 144.686 784.109 155.129C778.382 165.404 770.466 172.983 760.36 177.868C750.422 182.752 739.137 185.195 726.504 185.195ZM727.515 155.129C732.736 155.129 737.116 153.697 740.653 150.834C744.19 147.802 746.885 143.423 748.738 137.696C750.591 131.969 751.517 125.147 751.517 117.231C751.517 108.472 750.506 101.145 748.485 95.2502C746.464 89.1865 743.516 84.5546 739.642 81.3543C735.937 78.154 731.389 76.5539 725.999 76.5539C720.946 76.5539 716.651 78.0698 713.114 81.1016C709.577 83.965 706.882 88.2602 705.029 93.987C703.176 99.7138 702.25 106.62 702.25 114.704C702.25 127.506 704.439 137.443 708.819 144.518C713.366 151.592 719.599 155.129 727.515 155.129Z" fill="#303133"/>
<path d="M872.394 185.195C859.593 185.195 848.223 182.668 838.286 177.615C828.348 172.394 820.6 164.646 815.042 154.371C809.483 143.928 806.704 130.874 806.704 115.21C806.704 98.8716 809.567 85.5652 815.294 75.2906C821.19 64.8476 829.106 57.1838 839.044 52.2992C849.15 47.2461 860.519 44.7196 873.152 44.7196C886.29 44.7196 897.743 47.3303 907.513 52.5518C917.45 57.6049 925.114 65.3529 930.504 75.7959C936.062 86.0705 938.842 99.1242 938.842 114.957C938.842 131.295 935.894 144.686 929.999 155.129C924.272 165.404 916.355 172.983 906.249 177.868C896.312 182.752 885.027 185.195 872.394 185.195ZM873.404 155.129C878.626 155.129 883.005 153.697 886.542 150.834C890.08 147.802 892.775 143.423 894.627 137.696C896.48 131.969 897.407 125.147 897.407 117.231C897.407 108.472 896.396 101.145 894.375 95.2502C892.353 89.1865 889.406 84.5546 885.532 81.3543C881.826 78.154 877.279 76.5539 871.889 76.5539C866.836 76.5539 862.54 78.0698 859.003 81.1016C855.466 83.965 852.771 88.2602 850.918 93.987C849.066 99.7138 848.139 106.62 848.139 114.704C848.139 127.506 850.329 137.443 854.708 144.518C859.256 151.592 865.488 155.129 873.404 155.129Z" fill="#303133"/>
<path d="M956.131 181.658V48.2567H990.744V102.577H992.765C993.944 88.4286 996.218 77.1434 999.587 68.7216C1003.12 60.2999 1007.76 54.2362 1013.48 50.5306C1019.38 46.6566 1026.37 44.7196 1034.45 44.7196C1042.87 44.7196 1049.7 46.825 1054.92 51.0359C1060.14 55.0784 1064.01 61.3947 1066.54 69.9849C1069.07 78.4067 1070.25 89.2708 1070.08 102.577H1072.1C1073.28 88.597 1075.72 77.3961 1079.43 68.9743C1083.13 60.5525 1088.02 54.4046 1094.08 50.5306C1100.14 46.6566 1107.3 44.7196 1115.55 44.7196C1122.46 44.7196 1128.44 45.9829 1133.49 48.5094C1138.55 51.0359 1142.76 54.8257 1146.13 59.8788C1149.66 64.9318 1152.27 71.3324 1153.96 79.0804C1155.64 86.66 1156.48 95.5871 1156.48 105.862V181.658H1115.55V109.399C1115.55 102.998 1114.97 97.6925 1113.79 93.4816C1112.78 89.1023 1111.18 85.9021 1108.99 83.8808C1106.8 81.6912 1104.02 80.5963 1100.65 80.5963C1096.27 80.5963 1092.23 82.6176 1088.52 86.66C1084.82 90.534 1081.78 96.4293 1079.43 104.346C1077.24 112.262 1076.14 122.284 1076.14 134.411V181.658H1036.22V108.388C1036.22 101.988 1035.63 96.7661 1034.45 92.7237C1033.44 88.6812 1031.76 85.6494 1029.4 83.6282C1027.21 81.6069 1024.43 80.5963 1021.06 80.5963C1016.85 80.5963 1012.89 82.3649 1009.19 85.9021C1005.65 89.2708 1002.7 94.9133 1000.34 102.83C998.155 110.746 997.06 121.273 997.06 134.411V181.658H956.131Z" fill="#303133"/>
<path d="M1176.04 181.658V48.2567H1216.97V181.658H1176.04ZM1196.25 38.6559C1188.5 38.6559 1182.52 37.0558 1178.31 33.8555C1174.27 30.4868 1172.25 25.6864 1172.25 19.4543C1172.25 13.0538 1174.27 8.25334 1178.31 5.05306C1182.52 1.68435 1188.5 0 1196.25 0C1204.17 0 1210.15 1.68435 1214.19 5.05306C1218.4 8.42177 1220.51 13.2222 1220.51 19.4543C1220.51 25.518 1218.4 30.2342 1214.19 33.6029C1210.15 36.9716 1204.17 38.6559 1196.25 38.6559Z" fill="#303133"/>
<path d="M1301.21 185.195C1288.58 185.195 1277.97 183.426 1269.38 179.889C1260.95 176.183 1254.13 171.215 1248.91 164.982C1243.69 158.582 1239.9 151.339 1237.54 143.254C1235.35 135.169 1234.26 126.663 1234.26 117.736C1234.26 108.136 1235.44 98.9558 1237.79 90.1972C1240.32 81.4385 1244.11 73.6905 1249.16 66.9531C1254.38 60.0472 1261.04 54.6573 1269.12 50.7833C1277.38 46.7408 1287.23 44.7196 1298.68 44.7196C1310.14 44.7196 1319.91 46.7408 1327.99 50.7833C1336.24 54.6573 1342.81 60.1314 1347.7 67.2057C1352.58 74.28 1355.7 82.4491 1357.05 91.7131C1358.56 100.977 1358.39 110.999 1356.54 121.779L1259.77 123.295V101.061L1325.21 99.798L1319.91 112.683C1320.92 104.935 1320.75 98.4505 1319.4 93.229C1318.22 87.8391 1315.95 83.7966 1312.58 81.1016C1309.21 78.2382 1304.58 76.8065 1298.68 76.8065C1292.45 76.8065 1287.48 78.4067 1283.78 81.6069C1280.07 84.8072 1277.46 89.355 1275.94 95.2502C1274.43 100.977 1273.67 107.799 1273.67 115.715C1273.67 129.358 1275.94 139.296 1280.49 145.528C1285.04 151.76 1292.03 154.876 1301.46 154.876C1305.5 154.876 1308.87 154.371 1311.57 153.36C1314.26 152.35 1316.45 150.918 1318.14 149.065C1319.82 147.044 1321 144.686 1321.67 141.991C1322.35 139.128 1322.6 135.927 1322.43 132.39L1359.83 134.411C1360.33 139.97 1359.74 145.697 1358.06 151.592C1356.54 157.487 1353.59 162.961 1349.21 168.014C1344.83 173.067 1338.69 177.194 1330.77 180.394C1323.02 183.595 1313.17 185.195 1301.21 185.195Z" fill="#303133"/>
</svg>
