<svg width="200" height="27" viewBox="0 0 200 27" fill="none" xmlns="http://www.w3.org/2000/svg">
<g clip-path="url(#clip0_41_2770)">
<rect width="200" height="27" fill="#FCFAF8"/>
<path d="M49.1525 27.0828C46.3934 27.0828 43.8979 26.3286 41.6661 24.8203V20.1299C42.6471 20.8902 43.7691 21.5033 45.0322 21.9693C46.3075 22.4353 47.4786 22.6682 48.5454 22.6682C49.3916 22.6682 50.0476 22.515 50.5136 22.2084C50.9918 21.9018 51.231 21.4481 51.231 20.8472C51.231 20.418 51.0777 20.0563 50.7711 19.762C50.4646 19.4677 49.9618 19.2286 49.2628 19.0446L46.5405 18.3273C44.885 17.9103 43.6465 17.2665 42.8249 16.3959C42.0033 15.513 41.5925 14.3726 41.5925 12.9746C41.5925 11.7606 41.9114 10.6999 42.549 9.79247C43.1989 8.88503 44.1248 8.17993 45.3265 7.67716C46.5405 7.17439 47.963 6.92301 49.5939 6.92301C52.1077 6.92301 54.3395 7.53001 56.2893 8.74401V13.1954C55.3819 12.5822 54.4009 12.1162 53.3463 11.7974C52.2917 11.4663 51.231 11.3008 50.1641 11.3008C49.2935 11.3008 48.6436 11.4295 48.2144 11.687C47.7852 11.9323 47.5706 12.2879 47.5706 12.7539C47.5706 13.1463 47.7177 13.4835 48.012 13.7656C48.3186 14.0353 48.8091 14.2499 49.4835 14.4094L52.2794 15.0531C55.6517 15.8012 57.3378 17.6712 57.3378 20.6633C57.3378 21.9141 57.0005 23.03 56.3261 24.011C55.6517 24.9798 54.6952 25.7339 53.4566 26.2735C52.2181 26.813 50.7834 27.0828 49.1525 27.0828Z" fill="#302E2C"/>
<path d="M71.585 6.92301C72.9462 6.92301 74.1234 7.22344 75.1166 7.82431C76.1222 8.42518 76.8947 9.30196 77.4343 10.4546C77.9738 11.5951 78.2436 12.9685 78.2436 14.5749V26.5126H72.3575V15.8809C72.3575 14.532 72.1062 13.5264 71.6034 12.8643C71.1129 12.1898 70.3158 11.8526 69.2122 11.8526C68.0595 11.8526 67.1704 12.2511 66.545 13.0482C65.9197 13.8453 65.607 14.9366 65.607 16.3223V26.5126H59.7393V0.568494H65.607V10.1971C66.1588 9.17933 66.9375 8.38226 67.943 7.80592C68.9485 7.21731 70.1625 6.92301 71.585 6.92301Z" fill="#302E2C"/>
<path d="M92.2149 7.14374C93.1346 7.14374 93.9501 7.39512 94.6613 7.89789V13.3241C93.852 12.7968 92.8403 12.5332 91.6263 12.5332C90.3388 12.5332 89.3271 12.9869 88.5913 13.8943C87.8556 14.8018 87.4816 16.0955 87.4693 17.7754V26.5126H81.6016V7.49322H87.4693V11.4111C87.8862 9.96414 88.4994 8.89116 89.3087 8.19219C90.1303 7.49322 91.099 7.14374 92.2149 7.14374Z" fill="#302E2C"/>
<path d="M105.267 27.0828C103.341 27.0828 101.606 26.6659 100.061 25.832C98.516 24.9981 97.302 23.8271 96.4191 22.3188C95.5362 20.7982 95.0947 19.0508 95.0947 17.0765C95.0947 15.0654 95.53 13.2935 96.4007 11.7606C97.2713 10.2155 98.4792 9.02605 100.024 8.19219C101.569 7.34607 103.317 6.92301 105.267 6.92301C107.229 6.92301 108.988 7.34607 110.546 8.19219C112.103 9.02605 113.317 10.2155 114.188 11.7606C115.071 13.2935 115.512 15.0654 115.512 17.0765C115.512 19.0508 115.064 20.7982 114.169 22.3188C113.286 23.8271 112.066 24.9981 110.509 25.832C108.951 26.6659 107.204 27.0828 105.267 27.0828ZM105.267 22.098C106.137 22.098 106.885 21.8896 107.511 21.4726C108.148 21.0557 108.639 20.4671 108.982 19.7068C109.325 18.9343 109.497 18.0452 109.497 17.0397C109.497 16.0219 109.325 15.1267 108.982 14.3542C108.651 13.5694 108.167 12.9624 107.529 12.5332C106.891 12.104 106.137 11.8894 105.267 11.8894C104.408 11.8894 103.66 12.104 103.022 12.5332C102.397 12.9624 101.919 13.5632 101.588 14.3358C101.257 15.1083 101.091 16.0096 101.091 17.0397C101.091 18.0452 101.257 18.9343 101.588 19.7068C101.931 20.4671 102.415 21.0557 103.041 21.4726C103.666 21.8896 104.408 22.098 105.267 22.098Z" fill="#302E2C"/>
<path d="M127.092 27.0828C125.167 27.0828 123.432 26.6659 121.887 25.832C120.342 24.9981 119.128 23.8271 118.245 22.3188C117.362 20.7982 116.92 19.0508 116.92 17.0765C116.92 15.0654 117.356 13.2935 118.226 11.7606C119.097 10.2155 120.305 9.02605 121.85 8.19219C123.395 7.34607 125.142 6.92301 127.092 6.92301C129.054 6.92301 130.814 7.34607 132.371 8.19219C133.929 9.02605 135.143 10.2155 136.013 11.7606C136.896 13.2935 137.338 15.0654 137.338 17.0765C137.338 19.0508 136.89 20.7982 135.995 22.3188C135.112 23.8271 133.892 24.9981 132.334 25.832C130.777 26.6659 129.03 27.0828 127.092 27.0828ZM127.092 22.098C127.963 22.098 128.711 21.8896 129.336 21.4726C129.974 21.0557 130.464 20.4671 130.808 19.7068C131.151 18.9343 131.323 18.0452 131.323 17.0397C131.323 16.0219 131.151 15.1267 130.808 14.3542C130.477 13.5694 129.992 12.9624 129.355 12.5332C128.717 12.104 127.963 11.8894 127.092 11.8894C126.234 11.8894 125.486 12.104 124.848 12.5332C124.223 12.9624 123.744 13.5632 123.413 14.3358C123.082 15.1083 122.917 16.0096 122.917 17.0397C122.917 18.0452 123.082 18.9343 123.413 19.7068C123.757 20.4671 124.241 21.0557 124.866 21.4726C125.492 21.8896 126.234 22.098 127.092 22.098Z" fill="#302E2C"/>
<path d="M162.566 6.92301C163.915 6.92301 165.08 7.21731 166.061 7.80592C167.042 8.39453 167.796 9.24678 168.323 10.3627C168.851 11.4663 169.114 12.7784 169.114 14.299V26.5126H163.247V15.421C163.247 14.2683 163.014 13.3854 162.548 12.7723C162.094 12.1592 161.395 11.8526 160.451 11.8526C159.531 11.8526 158.789 12.1714 158.225 12.8091C157.661 13.4345 157.373 14.2438 157.36 15.2371V26.5126H151.603V15.2555C151.603 14.1886 151.364 13.3548 150.886 12.7539C150.408 12.153 149.702 11.8526 148.771 11.8526C148.17 11.8526 147.636 12.012 147.17 12.3308C146.704 12.6497 146.342 13.0911 146.085 13.6552C145.827 14.2193 145.699 14.8631 145.699 15.5866V26.5126H139.831V7.49322H145.607V10.565C146.134 9.40006 146.87 8.50489 147.814 7.87949C148.771 7.24184 149.899 6.92301 151.199 6.92301C152.486 6.92301 153.59 7.22344 154.509 7.82431C155.441 8.42518 156.153 9.2713 156.643 10.3627C157.269 9.25904 158.084 8.41292 159.09 7.82431C160.095 7.22344 161.254 6.92301 162.566 6.92301Z" fill="#302E2C"/>
<path d="M175.507 6.14359C174.882 6.14359 174.318 6.01483 173.815 5.75731C173.312 5.48753 172.92 5.11965 172.638 4.65367C172.356 4.17543 172.215 3.63587 172.215 3.035C172.215 2.4464 172.35 1.92524 172.619 1.47152C172.901 1.00554 173.294 0.643789 173.797 0.386273C174.299 0.128758 174.87 0 175.507 0C176.145 0 176.709 0.128758 177.199 0.386273C177.69 0.643789 178.07 1.00554 178.34 1.47152C178.622 1.92524 178.763 2.4464 178.763 3.035C178.763 3.63587 178.622 4.17543 178.34 4.65367C178.058 5.11965 177.665 5.48753 177.163 5.75731C176.672 6.01483 176.12 6.14359 175.507 6.14359ZM172.564 7.49322H178.45V26.5126H172.564V7.49322Z" fill="#302E2C"/>
<path d="M200 18.4192H186.94C187.247 19.7068 187.94 20.7062 189.019 21.4175C190.098 22.1164 191.551 22.4659 193.378 22.4659C194.445 22.4659 195.487 22.3126 196.505 22.0061C197.523 21.6995 198.424 21.2826 199.209 20.7553V25.0595C198.424 25.6481 197.406 26.1324 196.156 26.5126C194.905 26.8927 193.519 27.0828 191.999 27.0828C189.767 27.0828 187.823 26.672 186.168 25.8504C184.512 25.0165 183.237 23.8332 182.342 22.3004C181.447 20.7675 180.999 18.9649 180.999 16.8925C180.999 14.9428 181.404 13.2137 182.213 11.7054C183.022 10.1971 184.181 9.02605 185.689 8.19219C187.21 7.34607 188.988 6.92301 191.024 6.92301C192.912 6.92301 194.525 7.27249 195.861 7.97146C197.21 8.65817 198.234 9.67597 198.933 11.0249C199.644 12.3738 200 14.0169 200 15.9544V18.4192ZM191.152 11.3927C189.963 11.3927 189.019 11.7177 188.32 12.3676C187.621 13.0175 187.192 13.925 187.032 15.0899H194.923C194.886 13.8882 194.537 12.9746 193.875 12.3492C193.213 11.7116 192.305 11.3927 191.152 11.3927Z" fill="#302E2C"/>
<path fill-rule="evenodd" clip-rule="evenodd" d="M0 18.1136C0 14.6006 0.705427 11.4902 2.11631 8.78234C3.59132 6.00126 5.64354 3.84227 8.27291 2.30536C10.9023 0.768454 13.8844 0 17.2192 0C20.554 0 23.5041 0.768454 26.0693 2.30536C28.6345 3.84227 30.6226 6.00126 32.0335 8.78234C33.5085 11.4902 34.246 18.1136 34.246 18.1136H29.1882L30.7031 26.51H3.73177L5.24663 18.1136H0Z" fill="#A94B2B"/>
<path d="M25.5603 15.5499C25.5603 17.5979 23.9 19.2581 21.852 19.2581C19.804 19.2581 18.1438 17.5979 18.1438 15.5499C18.1438 13.5019 19.804 11.8416 21.852 11.8416C23.9 11.8416 25.5603 13.5019 25.5603 15.5499Z" fill="#FCFAF8"/>
<ellipse cx="23.4628" cy="15.5873" rx="2.09758" ry="2.09758" fill="#302E2C"/>
<ellipse cx="12.4131" cy="15.5499" rx="3.70823" ry="3.70823" fill="#FCFAF8"/>
<ellipse cx="14.0236" cy="15.5873" rx="2.09758" ry="2.09758" fill="#302E2C"/>
</g>
<defs>
<clipPath id="clip0_41_2770">
<rect width="200" height="27" fill="white"/>
</clipPath>
</defs>
</svg>
