<svg width="315" height="123" viewBox="0 0 315 123" fill="none" xmlns="http://www.w3.org/2000/svg">
<path fill-rule="evenodd" clip-rule="evenodd" d="M126.954 86.8989C126.954 70.0458 128.801 55.1237 132.494 42.1328C136.355 28.7907 141.727 18.4331 148.61 11.0599C155.493 3.68662 163.299 0 172.029 0C180.758 0 188.48 3.68662 195.195 11.0599C201.91 18.4331 207.114 28.7907 210.808 42.1328C214.669 55.1237 216.599 86.8989 216.599 86.8989H190.706V122.992H153.043V86.8989H126.954Z" fill="#EFB857"/>
<ellipse cx="186.587" cy="59.9651" rx="11.5734" ry="6.67144" fill="#FBF8F6"/>
<mask id="mask0_81_3071" style="mask-type:alpha" maskUnits="userSpaceOnUse" x="175" y="53" width="14" height="14">
<ellipse cx="181.583" cy="60.123" rx="6.56939" ry="6.57136" fill="#162105"/>
</mask>
<g mask="url(#mask0_81_3071)">
<ellipse cx="186.587" cy="59.9653" rx="11.5734" ry="6.67144" fill="#303133"/>
</g>
<ellipse cx="156.967" cy="59.9651" rx="11.5734" ry="6.67144" fill="#FBF8F6"/>
<mask id="mask1_81_3071" style="mask-type:alpha" maskUnits="userSpaceOnUse" x="145" y="53" width="14" height="14">
<ellipse cx="151.963" cy="60.123" rx="6.56939" ry="6.57136" fill="#162105"/>
</mask>
<g mask="url(#mask1_81_3071)">
<ellipse cx="156.967" cy="59.9653" rx="11.5734" ry="6.67144" fill="#303133"/>
</g>
<path d="M230.236 44.0264L243.228 44.0264V122.697H230.236V44.0264Z" fill="#E9C7DD"/>
<path d="M203.207 33.9876C200.056 36.9008 198.48 40.2471 198.48 44.0264H274.985C274.985 40.1895 273.337 36.9008 270.042 33.9876C266.89 30.9956 262.449 28.6729 256.718 27.0195C250.987 25.366 244.397 24.5393 236.947 24.5393C229.497 24.5393 222.835 25.366 216.961 27.0195C211.087 28.6729 206.503 30.9956 203.207 33.9876Z" fill="#E9C7DD"/>
<rect x="10.8262" y="46.1919" width="43.3047" height="76.5049" fill="#94BFE1"/>
<path d="M0 48.357C0 41.7782 1.32316 35.9533 3.96957 30.8821C6.73627 25.6739 10.5856 21.6307 15.5175 18.7524C20.4495 15.8742 26.043 14.4351 32.2981 14.4351C38.5532 14.4351 44.0866 15.8742 48.8982 18.7524C53.7099 21.6307 57.4389 25.6739 60.0853 30.8821C62.8519 35.9533 64.2353 41.678 64.2353 48.357V72.1746H0V48.357Z" fill="#94BFE1"/>
<path fill-rule="evenodd" clip-rule="evenodd" d="M236.732 92.7017C236.732 85.5261 238.344 79.1727 241.569 73.6415C244.94 67.9608 249.63 63.5507 255.64 60.4114C261.649 57.2721 268.464 55.7024 276.086 55.7024C283.708 55.7024 290.45 57.2721 296.312 60.4114C302.175 63.5507 306.719 67.9608 309.943 73.6415C313.314 79.1727 315 86.0947 315 92.7017H291.215V92.7019H315C315 95.3435 314.464 97.6824 313.392 99.7186C312.271 101.81 310.712 103.433 308.714 104.589C306.716 105.745 304.45 106.323 301.916 106.323C299.382 106.323 297.141 105.745 295.191 104.589C293.558 103.62 292.232 102.323 291.215 100.697V122.993H260.721V100.361C259.679 102.145 258.285 103.555 256.541 104.589C254.592 105.745 252.35 106.323 249.816 106.323C247.282 106.323 245.016 105.745 243.018 104.589C241.02 103.433 239.461 101.81 238.34 99.7186C237.268 97.6824 236.732 95.3435 236.732 92.7019H260.721V92.7017H236.732Z" fill="#C1C761"/>
<path d="M302.33 88.7052C294.305 88.7052 287.734 88.7052 279.103 88.7052C279.103 82.2911 284.302 77.0914 290.716 77.0914C297.131 77.0914 302.33 82.2911 302.33 88.7052Z" fill="#FBF8F6"/>
<mask id="mask2_81_3071" style="mask-type:alpha" maskUnits="userSpaceOnUse" x="279" y="77" width="24" height="12">
<path d="M302.33 88.7052C294.305 88.7052 287.734 88.7052 279.103 88.7052C279.103 82.2911 284.302 77.0914 290.716 77.0914C297.131 77.0914 302.33 82.2911 302.33 88.7052Z" fill="#FCFAF8"/>
</mask>
<g mask="url(#mask2_81_3071)">
<path d="M291.356 80.1852C291.356 83.8134 288.415 86.7546 284.787 86.7546C281.159 86.7546 278.218 83.8134 278.218 80.1852C278.218 76.5571 281.159 73.6158 284.787 73.6158C288.415 73.6158 291.356 76.5571 291.356 80.1852Z" fill="#303133"/>
</g>
<path d="M272.71 88.7052C264.685 88.7052 258.114 88.7052 249.483 88.7052C249.483 82.2911 254.682 77.0914 261.096 77.0914C267.51 77.0914 272.71 82.2911 272.71 88.7052Z" fill="#FBF8F6"/>
<mask id="mask3_81_3071" style="mask-type:alpha" maskUnits="userSpaceOnUse" x="249" y="77" width="24" height="12">
<path d="M272.71 88.7052C264.685 88.7052 258.114 88.7052 249.483 88.7052C249.483 82.2911 254.682 77.0914 261.096 77.0914C267.51 77.0914 272.71 82.2911 272.71 88.7052Z" fill="#FCFAF8"/>
</mask>
<g mask="url(#mask3_81_3071)">
<path d="M261.736 80.1852C261.736 83.8134 258.795 86.7546 255.167 86.7546C251.539 86.7546 248.597 83.8134 248.597 80.1852C248.597 76.5571 251.539 73.6158 255.167 73.6158C258.795 73.6158 261.736 76.5571 261.736 80.1852Z" fill="#303133"/>
</g>
<path d="M233.845 36.0872C233.845 38.0803 232.23 39.696 230.237 39.696C228.243 39.696 226.628 38.0803 226.628 36.0872C226.628 34.0942 228.243 32.4785 230.237 32.4785C232.23 32.4785 233.845 34.0942 233.845 36.0872Z" fill="#303133"/>
<path d="M246.837 36.0872C246.837 38.0803 245.221 39.696 243.228 39.696C241.235 39.696 239.619 38.0803 239.619 36.0872C239.619 34.0942 241.235 32.4785 243.228 32.4785C245.221 32.4785 246.837 34.0942 246.837 36.0872Z" fill="#303133"/>
<path fill-rule="evenodd" clip-rule="evenodd" d="M49.0786 96.6965C49.0786 85.6944 51.2879 75.953 55.7066 67.4722C60.3262 58.7622 66.7535 52.0005 74.9884 47.187C83.2233 42.3736 92.5629 39.9669 103.007 39.9669C113.451 39.9669 122.691 42.3736 130.725 47.187C138.759 52.0005 144.985 58.7622 149.404 67.4722C154.023 75.953 156.333 85.5267 156.333 96.6965H140.492L145.237 122.992H60.7656L65.5099 96.6965H49.0786Z" fill="#A94B2B"/>
<path d="M129.131 88.6664C129.131 95.0804 123.931 100.28 117.517 100.28C111.103 100.28 105.903 95.0804 105.903 88.6664C105.903 82.2523 111.103 77.0526 117.517 77.0526C123.931 77.0526 129.131 82.2523 129.131 88.6664Z" fill="#FBF8F6"/>
<ellipse cx="122.561" cy="88.7835" rx="6.56939" ry="6.56939" fill="#303133"/>
<ellipse cx="87.9546" cy="88.6664" rx="11.6137" ry="11.6137" fill="#FBF8F6"/>
<ellipse cx="92.9997" cy="88.7835" rx="6.56939" ry="6.56939" fill="#303133"/>
<path fill-rule="evenodd" clip-rule="evenodd" d="M12.2697 54.8527C12.512 59.2053 16.1183 62.6602 20.5315 62.6602C24.9448 62.6602 28.5511 59.2053 28.7934 54.8527H24.7811C24.5483 56.9937 22.7345 58.6602 20.5315 58.6602C18.3285 58.6602 16.5147 56.9937 16.2819 54.8527H12.2697Z" fill="#303133"/>
<path fill-rule="evenodd" clip-rule="evenodd" d="M35.5061 54.8527C35.7484 59.2053 39.3547 62.6602 43.768 62.6602C48.1812 62.6602 51.7875 59.2053 52.0299 54.8527H48.0176C47.7848 56.9937 45.971 58.6602 43.768 58.6602C41.565 58.6602 39.7512 56.9937 39.5184 54.8527H35.5061Z" fill="#303133"/>
</svg>
